<?xml version="1.0" encoding="utf-8"?>
<!-- Generator: Adobe Illustrator 21.1.0, SVG Export Plug-In . SVG Version: 6.00 Build 0)  -->
<svg version="1.1" id="Capa_1" xmlns="http://www.w3.org/2000/svg" xmlns:xlink="http://www.w3.org/1999/xlink" x="0px" y="0px"
	 viewBox="0 0 50 50" style="enable-background:new 0 0 50 50;" xml:space="preserve">
<g>
	<polygon points="19.5,21.7 17.4,23.7 30.3,28.7 32.4,26.6 	"/>
	<path d="M8.1,20.1C8.1,20.2,8.1,20.2,8.1,20.1l4.3,1.7l2.5,1l0,0l0,0l9.8-9.8l6.3,6.2l4.3,4.3l1.7-1.7l-0.5-0.5L24.8,9.6L14.5,19.8
		L9,17.7c0,0,0,0,0,0C8.7,18.5,8.4,19.3,8.1,20.1z"/>
	<path d="M3,15.4l-1,2.5l2.2,0.8c0.3-0.8,0.6-1.7,0.9-2.5L3,15.4z"/>
	<g>
		<path d="M41.1,33.6C38,39.3,32,43.3,25,43.3C14.9,43.3,6.7,35.1,6.7,25c0-1.8,0.3-3.5,0.7-5.1c0.3-0.9,0.6-1.7,0.9-2.5
			C11.2,11.1,17.6,6.7,25,6.7c10.1,0,18.3,8.2,18.3,18.3c0,1.6-0.2,3.2-0.6,4.7l0.1,0l2.4,0.9c0.5-1.8,0.8-3.7,0.8-5.6
			c0-11.6-9.4-21-21-21C16.4,4,9.1,9.2,5.8,16.5c-0.3,0.8-0.7,1.6-0.9,2.5C4.3,20.9,4,22.9,4,25c0,11.6,9.4,21,21,21
			c8.1,0,15.2-4.6,18.7-11.4L41.1,33.6L41.1,33.6z"/>
	</g>
	<polygon points="47.9,32.5 37.3,28.5 34.9,27.6 34.8,27.6 34.8,27.6 24.8,37.6 18.3,31.2 14.2,27 12.4,28.7 12.8,29.1 24.8,41 
		35.3,30.6 47,35 	"/>
</g>
</svg>
